<mxfile host="app.diagrams.net" agent="Mozilla/5.0 (Macintosh; Intel Mac OS X 10_15_7) AppleWebKit/537.36 (KHTML, like Gecko) Chrome/138.0.0.0 Safari/537.36" version="28.0.7">
  <diagram name="Page-1" id="g5ewAIPs5RjiaGas3OiK">
    <mxGraphModel dx="666" dy="630" grid="1" gridSize="10" guides="1" tooltips="1" connect="1" arrows="1" fold="1" page="1" pageScale="1" pageWidth="827" pageHeight="1169" math="0" shadow="0">
      <root>
        <mxCell id="0" />
        <mxCell id="1" parent="0" />
        <mxCell id="xf-vek_-WwIR7bw1mTHB-3" value="" style="edgeStyle=orthogonalEdgeStyle;rounded=0;orthogonalLoop=1;jettySize=auto;html=1;" edge="1" parent="1" source="xf-vek_-WwIR7bw1mTHB-1" target="xf-vek_-WwIR7bw1mTHB-2">
          <mxGeometry relative="1" as="geometry" />
        </mxCell>
        <mxCell id="xf-vek_-WwIR7bw1mTHB-1" value="agent - 1.1 - explore" style="rounded=0;whiteSpace=wrap;html=1;" vertex="1" parent="1">
          <mxGeometry x="70" y="100" width="120" height="60" as="geometry" />
        </mxCell>
        <mxCell id="xf-vek_-WwIR7bw1mTHB-5" value="" style="edgeStyle=orthogonalEdgeStyle;rounded=0;orthogonalLoop=1;jettySize=auto;html=1;" edge="1" parent="1" source="xf-vek_-WwIR7bw1mTHB-2" target="xf-vek_-WwIR7bw1mTHB-4">
          <mxGeometry relative="1" as="geometry" />
        </mxCell>
        <mxCell id="xf-vek_-WwIR7bw1mTHB-2" value="agent - 1.2 - action" style="rounded=0;whiteSpace=wrap;html=1;" vertex="1" parent="1">
          <mxGeometry x="70" y="240" width="120" height="60" as="geometry" />
        </mxCell>
        <mxCell id="xf-vek_-WwIR7bw1mTHB-15" style="edgeStyle=orthogonalEdgeStyle;rounded=0;orthogonalLoop=1;jettySize=auto;html=1;entryX=0.5;entryY=0;entryDx=0;entryDy=0;" edge="1" parent="1" source="xf-vek_-WwIR7bw1mTHB-4" target="xf-vek_-WwIR7bw1mTHB-14">
          <mxGeometry relative="1" as="geometry" />
        </mxCell>
        <mxCell id="xf-vek_-WwIR7bw1mTHB-4" value="agent - 1.3 - check action result" style="rounded=0;whiteSpace=wrap;html=1;" vertex="1" parent="1">
          <mxGeometry x="70" y="380" width="120" height="60" as="geometry" />
        </mxCell>
        <mxCell id="xf-vek_-WwIR7bw1mTHB-7" value="" style="edgeStyle=orthogonalEdgeStyle;rounded=0;orthogonalLoop=1;jettySize=auto;html=1;" edge="1" parent="1" source="xf-vek_-WwIR7bw1mTHB-8" target="xf-vek_-WwIR7bw1mTHB-10">
          <mxGeometry relative="1" as="geometry" />
        </mxCell>
        <mxCell id="xf-vek_-WwIR7bw1mTHB-8" value="agent - n.1 - explore" style="rounded=0;whiteSpace=wrap;html=1;" vertex="1" parent="1">
          <mxGeometry x="390" y="100" width="120" height="60" as="geometry" />
        </mxCell>
        <mxCell id="xf-vek_-WwIR7bw1mTHB-9" value="" style="edgeStyle=orthogonalEdgeStyle;rounded=0;orthogonalLoop=1;jettySize=auto;html=1;" edge="1" parent="1" source="xf-vek_-WwIR7bw1mTHB-10" target="xf-vek_-WwIR7bw1mTHB-11">
          <mxGeometry relative="1" as="geometry" />
        </mxCell>
        <mxCell id="xf-vek_-WwIR7bw1mTHB-10" value="agent - n.2 - action" style="rounded=0;whiteSpace=wrap;html=1;" vertex="1" parent="1">
          <mxGeometry x="390" y="240" width="120" height="60" as="geometry" />
        </mxCell>
        <mxCell id="xf-vek_-WwIR7bw1mTHB-16" style="edgeStyle=orthogonalEdgeStyle;rounded=0;orthogonalLoop=1;jettySize=auto;html=1;" edge="1" parent="1" source="xf-vek_-WwIR7bw1mTHB-11" target="xf-vek_-WwIR7bw1mTHB-14">
          <mxGeometry relative="1" as="geometry" />
        </mxCell>
        <mxCell id="xf-vek_-WwIR7bw1mTHB-11" value="agent - n.3 - check action result" style="rounded=0;whiteSpace=wrap;html=1;" vertex="1" parent="1">
          <mxGeometry x="390" y="380" width="120" height="60" as="geometry" />
        </mxCell>
        <mxCell id="xf-vek_-WwIR7bw1mTHB-14" value="Save summary for&amp;nbsp;&lt;div&gt;1 - n agents results&lt;/div&gt;" style="rounded=0;whiteSpace=wrap;html=1;" vertex="1" parent="1">
          <mxGeometry x="210" y="510" width="120" height="60" as="geometry" />
        </mxCell>
      </root>
    </mxGraphModel>
  </diagram>
</mxfile>
